<?xml version="1.0" encoding="utf-8"?>
<svg viewBox="196.449 -18.328 500 500" xmlns="http://www.w3.org/2000/svg">
  <defs>
    <view id="view-1" viewBox="-110.673 -268.468 1211.893 951.592">
      <title>View 1</title>
    </view>
  </defs>
  <g id="g8" transform="matrix(1.333333, 0, 0, -1.333333, -2291.709264, 1287.81135)">
    <g id="g10" transform="scale(0.1)">
      <ellipse style="stroke: rgb(0, 0, 0); fill: rgb(255, 255, 255);" transform="matrix(1, 0, 0, -1, 0, 0)" cx="20630.338" cy="-8455.676" rx="1168.154" ry="1168.154"/>
      <g style="" transform="matrix(0.235213, 0, 0, 0.235213, 15649.123047, 6154.313965)">
        <path d="M 21058.5 5453.3 C 23497.1 5458.1 25474.5 7441.3 25468.1 9875.87 C 25461.7 12291.4 23474.8 14269.1 21058 14265.4 C 18631.3 14261.7 16653.3 12278.1 16656.2 9851.06 C 16659.1 7435.54 18648 5448.7 21058.5 5453.3 L 21058.5 5453.3 Z M 21046.9 0 C 20645.1 397.898 20238.3 783.199 19851.2 1187.4 C 18641.8 2450.4 17563.3 3814.2 16709.1 5345.8 C 16136.8 6371.95 15695 7447.49 15473.1 8608.33 C 14893.3 11640.8 16537.7 14281.6 19114.8 15219.1 C 22263.5 16364.6 25678.8 14582 26567.4 11349.8 C 26885.3 10193.5 26800.5 9043.2 26488.3 7901.52 C 26120.4 6556.23 25478.7 5339.5 24706.4 4188.5 C 23691.3 2675.7 22494.3 1318.9 21152.3 88.602 C 21125.2 63.801 21096 41.102 21046.9 0" style="fill-opacity: 1; fill-rule: nonzero; stroke: none; fill: rgb(188, 129, 47);" id="path16"/>
        <g transform="matrix(7.500002, 0, 0, -7.500002, 19006.201172, 9839.775391)">
          <g>
            <path d="M 38.552 280.38 L 241.949 -153.785 L 241.949 266.258 C 241.949 303.849 281.799 301.693 290.26 301.693 L 686.647 301.693 C 695.105 301.693 698.546 288.073 694.359 280.731 L 284.828 -445.175 C 280.639 -452.515 273.859 -452.515 269.672 -445.175 L 167.124 -265.104 C 162.935 -257.764 153.564 -248.476 146.164 -244.371 C 42.433 -186.815 -97.457 -109.954 -159.451 -82.751 C -168.739 -78.666 -168.221 -66.953 -160.986 -59.861 C -147.198 -46.383 -117.901 -15.551 -90.843 21.582 C -75.106 43.186 -61.34 67.28 -50.059 91.186 C -46.451 98.836 -47.136 111.069 -51.323 118.428 L -139.401 280.731 C -143.547 288.073 -140.084 301.693 -131.626 301.693 L 16.31 301.693 C 24.764 301.696 34.717 287.927 38.552 280.38 Z M -79.733 -54.115 C -83.528 -57.476 -83.092 -61.954 -78.593 -64.317 C -34.949 -87.166 171.538 -195.54 228.951 -230.642 C 233.285 -233.296 234.859 -231.886 232.559 -227.366 L 36.833 157.244 C 34.53 161.764 31.898 161.392 30.779 156.435 C 23.418 123.922 -6.46 10.697 -79.733 -54.115 Z" style="fill: rgb(188, 129, 47);"/>
          </g>
        </g>
      </g>
      <g transform="matrix(7.500002, 0, 0, -7.500002, 19006.200487, 9839.775004)"/>
      <g transform="matrix(7.500002, 0, 0, -7.500002, 19006.200487, 9839.775004)"/>
      <g transform="matrix(7.500002, 0, 0, -7.500002, 19006.200487, 9839.775004)"/>
      <g transform="matrix(7.500002, 0, 0, -7.500002, 19006.200487, 9839.775004)"/>
      <g transform="matrix(7.500002, 0, 0, -7.500002, 19006.200487, 9839.775004)"/>
      <g transform="matrix(7.500002, 0, 0, -7.500002, 19006.200487, 9839.775004)"/>
      <g transform="matrix(7.500002, 0, 0, -7.500002, 19006.200487, 9839.775004)"/>
      <g transform="matrix(7.500002, 0, 0, -7.500002, 19006.200487, 9839.775004)"/>
      <g transform="matrix(7.500002, 0, 0, -7.500002, 19006.200487, 9839.775004)"/>
      <g transform="matrix(7.500002, 0, 0, -7.500002, 19006.200487, 9839.775004)"/>
      <g transform="matrix(7.500002, 0, 0, -7.500002, 19006.200487, 9839.775004)"/>
      <g transform="matrix(7.500002, 0, 0, -7.500002, 19006.200487, 9839.775004)"/>
      <g transform="matrix(7.500002, 0, 0, -7.500002, 19006.200487, 9839.775004)"/>
      <g transform="matrix(7.500002, 0, 0, -7.500002, 19006.200487, 9839.775004)"/>
      <g transform="matrix(7.500002, 0, 0, -7.500002, 19006.200487, 9839.775004)"/>
    </g>
  </g>
</svg>