<?xml version="1.0" encoding="UTF-8" standalone="no"?>
<svg
   xmlns:dc="http://purl.org/dc/elements/1.1/"
   xmlns:cc="http://creativecommons.org/ns#"
   xmlns:rdf="http://www.w3.org/1999/02/22-rdf-syntax-ns#"
   xmlns:svg="http://www.w3.org/2000/svg"
   xmlns="http://www.w3.org/2000/svg"
   xmlns:sodipodi="http://sodipodi.sourceforge.net/DTD/sodipodi-0.dtd"
   xmlns:inkscape="http://www.inkscape.org/namespaces/inkscape"
   viewBox="196.449 -18.328 500 500"
   version="1.1"
   id="svg3847"
   sodipodi:docname="liked-marker.svg"
   inkscape:version="0.92.5 (2060ec1f9f, 2020-04-08)">
  <metadata
     id="metadata3851">
    <rdf:RDF>
      <cc:Work
         rdf:about="">
        <dc:format>image/svg+xml</dc:format>
        <dc:type
           rdf:resource="http://purl.org/dc/dcmitype/StillImage" />
        <dc:title></dc:title>
      </cc:Work>
    </rdf:RDF>
  </metadata>
  <sodipodi:namedview
     pagecolor="#ffffff"
     bordercolor="#666666"
     borderopacity="1"
     objecttolerance="10"
     gridtolerance="10"
     guidetolerance="10"
     inkscape:pageopacity="0"
     inkscape:pageshadow="2"
     inkscape:window-width="1600"
     inkscape:window-height="833"
     id="namedview3849"
     showgrid="false"
     inkscape:zoom="1.244"
     inkscape:cx="67.926045"
     inkscape:cy="250"
     inkscape:window-x="0"
     inkscape:window-y="0"
     inkscape:window-maximized="1"
     inkscape:current-layer="g4685" />
  <defs
     id="defs3802">
    <view
       id="view-1"
       viewBox="-110.673 -268.468 1211.893 951.592">
      <title>View 1</title>
    </view>
  </defs>
  <g
     id="g8"
     transform="matrix(1.333333, 0, 0, -1.333333, -2291.709264, 1287.81135)">
    <g
       id="g10"
       transform="scale(0.1)">
      <ellipse
         style="stroke: rgb(0, 0, 0); fill: rgb(255, 255, 255);"
         transform="matrix(1, 0, 0, -1, 0, 0)"
         cx="20630.338"
         cy="-8455.676"
         rx="1168.154"
         ry="1168.154"
         id="ellipse3804" />
      <g
         style=""
         transform="matrix(0.235213, 0, 0, 0.235213, 15649.123047, 6154.313965)"
         id="g3813">
        <path
           d="M 21058.5 5453.3 C 23497.1 5458.1 25474.5 7441.3 25468.1 9875.87 C 25461.7 12291.4 23474.8 14269.1 21058 14265.4 C 18631.3 14261.7 16653.3 12278.1 16656.2 9851.06 C 16659.1 7435.54 18648 5448.7 21058.5 5453.3 L 21058.5 5453.3 Z M 21046.9 0 C 20645.1 397.898 20238.3 783.199 19851.2 1187.4 C 18641.8 2450.4 17563.3 3814.2 16709.1 5345.8 C 16136.8 6371.95 15695 7447.49 15473.1 8608.33 C 14893.3 11640.8 16537.7 14281.6 19114.8 15219.1 C 22263.5 16364.6 25678.8 14582 26567.4 11349.8 C 26885.3 10193.5 26800.5 9043.2 26488.3 7901.52 C 26120.4 6556.23 25478.7 5339.5 24706.4 4188.5 C 23691.3 2675.7 22494.3 1318.9 21152.3 88.602 C 21125.2 63.801 21096 41.102 21046.9 0"
           style="fill-opacity:1;fill-rule:nonzero;stroke:none;fill:#09ad53;opacity:1"
           id="path16" />
        <g
           transform="matrix(7.500002, 0, 0, -7.500002, 19006.201172, 9839.775391)"
           id="g3811">
          <g
             id="g3809" />
        </g>
      </g>
      <g
         transform="matrix(7.500002, 0, 0, -7.500002, 19006.200487, 9839.775004)"
         id="g3815" />
      <g
         transform="matrix(7.500002, 0, 0, -7.500002, 19006.200487, 9839.775004)"
         id="g3817" />
      <g
         transform="matrix(7.500002, 0, 0, -7.500002, 19006.200487, 9839.775004)"
         id="g3819" />
      <g
         transform="matrix(7.500002, 0, 0, -7.500002, 19006.200487, 9839.775004)"
         id="g3821" />
      <g
         transform="matrix(7.500002, 0, 0, -7.500002, 19006.200487, 9839.775004)"
         id="g3823" />
      <g
         transform="matrix(7.500002, 0, 0, -7.500002, 19006.200487, 9839.775004)"
         id="g3825" />
      <g
         transform="matrix(7.500002, 0, 0, -7.500002, 19006.200487, 9839.775004)"
         id="g3827" />
      <g
         transform="matrix(7.500002, 0, 0, -7.500002, 19006.200487, 9839.775004)"
         id="g3829" />
      <g
         transform="matrix(7.500002, 0, 0, -7.500002, 19006.200487, 9839.775004)"
         id="g3831" />
      <g
         transform="matrix(7.500002, 0, 0, -7.500002, 19006.200487, 9839.775004)"
         id="g3833" />
      <g
         transform="matrix(7.500002, 0, 0, -7.500002, 19006.200487, 9839.775004)"
         id="g3835" />
      <g
         transform="matrix(7.500002, 0, 0, -7.500002, 19006.200487, 9839.775004)"
         id="g3837" />
      <g
         transform="matrix(7.500002, 0, 0, -7.500002, 19006.200487, 9839.775004)"
         id="g3839" />
      <g
         transform="matrix(7.500002, 0, 0, -7.500002, 19006.200487, 9839.775004)"
         id="g3841" />
      <g
         transform="matrix(7.500002, 0, 0, -7.500002, 19006.200487, 9839.775004)"
         id="g3843" />
    </g>
    <g
       transform="translate(1754.5636,647.84967)"
       inkscape:label="ink_ext_XXXXXX"
       id="g4685"
       style="opacity:1">
      <g
         transform="matrix(0.1,0,0,0.1,0.89710676,0)"
         id="g4687">
        <path
           inkscape:connector-curvature="0"
           id="path4689"
           style="opacity:1;fill:#09ad53;fill-opacity:1;fill-rule:nonzero;stroke:none;stroke-width:0.54393893"
           d="m 3760.3631,2542.8212 c -413.1379,307.2058 -669.0939,-104.0285 -712.522,-181.9857 -43.4499,77.9572 -299.4004,489.1915 -712.5367,181.9857 -137.893,-102.5271 -361.5218,-551.995 136.0544,-964.052 119.4903,-98.9456 367.9199,-271.3849 497.5459,-400.9846 26.3267,-24.7858 51.538,-53.2573 74.5141,-85.2775 1.5504,-2.1738 2.883,-4.3939 4.4004,-6.5614 1.5396,2.1675 2.872,4.3876 4.4224,6.5614 23.0411,32.0944 48.318,60.6128 74.7102,85.4411 129.6692,129.5994 377.9232,301.924 497.3503,400.821 497.5739,412.057 273.9494,861.5249 136.061,964.052" />
      </g>
    </g>
  </g>
</svg>
