<?xml version="1.0" encoding="UTF-8" standalone="no"?>
<svg
   xmlns:dc="http://purl.org/dc/elements/1.1/"
   xmlns:cc="http://creativecommons.org/ns#"
   xmlns:rdf="http://www.w3.org/1999/02/22-rdf-syntax-ns#"
   xmlns:svg="http://www.w3.org/2000/svg"
   xmlns="http://www.w3.org/2000/svg"
   xmlns:sodipodi="http://sodipodi.sourceforge.net/DTD/sodipodi-0.dtd"
   xmlns:inkscape="http://www.inkscape.org/namespaces/inkscape"
   viewBox="196.449 -18.328 500 500"
   version="1.1"
   id="svg3847"
   sodipodi:docname="not-marker.svg"
   inkscape:version="0.92.5 (2060ec1f9f, 2020-04-08)">
  <metadata
     id="metadata3851">
    <rdf:RDF>
      <cc:Work
         rdf:about="">
        <dc:format>image/svg+xml</dc:format>
        <dc:type
           rdf:resource="http://purl.org/dc/dcmitype/StillImage" />
        <dc:title></dc:title>
      </cc:Work>
    </rdf:RDF>
  </metadata>
  <sodipodi:namedview
     pagecolor="#ffffff"
     bordercolor="#666666"
     borderopacity="1"
     objecttolerance="10"
     gridtolerance="10"
     guidetolerance="10"
     inkscape:pageopacity="0"
     inkscape:pageshadow="2"
     inkscape:window-width="1600"
     inkscape:window-height="833"
     id="namedview3849"
     showgrid="false"
     inkscape:zoom="1.244"
     inkscape:cx="379.55681"
     inkscape:cy="250"
     inkscape:window-x="0"
     inkscape:window-y="0"
     inkscape:window-maximized="1"
     inkscape:current-layer="g8" />
  <defs
     id="defs3802">
    <view
       id="view-1"
       viewBox="-110.673 -268.468 1211.893 951.592">
      <title>View 1</title>
    </view>
  </defs>
  <g
     id="g8"
     transform="matrix(1.333333, 0, 0, -1.333333, -2291.709264, 1287.81135)">
    <g
       id="g10"
       transform="scale(0.1)">
      <ellipse
         style="stroke: rgb(0, 0, 0); fill: rgb(255, 255, 255);"
         transform="matrix(1, 0, 0, -1, 0, 0)"
         cx="20630.338"
         cy="-8455.676"
         rx="1168.154"
         ry="1168.154"
         id="ellipse3804" />
      <g
         style=""
         transform="matrix(0.235213, 0, 0, 0.235213, 15649.123047, 6154.313965)"
         id="g3813">
        <path
           d="M 21058.5 5453.3 C 23497.1 5458.1 25474.5 7441.3 25468.1 9875.87 C 25461.7 12291.4 23474.8 14269.1 21058 14265.4 C 18631.3 14261.7 16653.3 12278.1 16656.2 9851.06 C 16659.1 7435.54 18648 5448.7 21058.5 5453.3 L 21058.5 5453.3 Z M 21046.9 0 C 20645.1 397.898 20238.3 783.199 19851.2 1187.4 C 18641.8 2450.4 17563.3 3814.2 16709.1 5345.8 C 16136.8 6371.95 15695 7447.49 15473.1 8608.33 C 14893.3 11640.8 16537.7 14281.6 19114.8 15219.1 C 22263.5 16364.6 25678.8 14582 26567.4 11349.8 C 26885.3 10193.5 26800.5 9043.2 26488.3 7901.52 C 26120.4 6556.23 25478.7 5339.5 24706.4 4188.5 C 23691.3 2675.7 22494.3 1318.9 21152.3 88.602 C 21125.2 63.801 21096 41.102 21046.9 0"
           style="fill-opacity:1;fill-rule:nonzero;stroke:none;fill:#ad1f11;opacity:1"
           id="path16" />
        <g
           transform="matrix(7.500002, 0, 0, -7.500002, 19006.201172, 9839.775391)"
           id="g3811">
          <g
             id="g3809" />
        </g>
      </g>
      <g
         transform="matrix(7.500002, 0, 0, -7.500002, 19006.200487, 9839.775004)"
         id="g3815" />
      <g
         transform="matrix(7.500002, 0, 0, -7.500002, 19006.200487, 9839.775004)"
         id="g3817" />
      <g
         transform="matrix(7.500002, 0, 0, -7.500002, 19006.200487, 9839.775004)"
         id="g3819" />
      <g
         transform="matrix(7.500002, 0, 0, -7.500002, 19006.200487, 9839.775004)"
         id="g3821" />
      <g
         transform="matrix(7.500002, 0, 0, -7.500002, 19006.200487, 9839.775004)"
         id="g3823" />
      <g
         transform="matrix(7.500002, 0, 0, -7.500002, 19006.200487, 9839.775004)"
         id="g3825" />
      <g
         transform="matrix(7.500002, 0, 0, -7.500002, 19006.200487, 9839.775004)"
         id="g3827" />
      <g
         transform="matrix(7.500002, 0, 0, -7.500002, 19006.200487, 9839.775004)"
         id="g3829" />
      <g
         transform="matrix(7.500002, 0, 0, -7.500002, 19006.200487, 9839.775004)"
         id="g3831" />
      <g
         transform="matrix(7.500002, 0, 0, -7.500002, 19006.200487, 9839.775004)"
         id="g3833" />
      <g
         transform="matrix(7.500002, 0, 0, -7.500002, 19006.200487, 9839.775004)"
         id="g3835" />
      <g
         transform="matrix(7.500002, 0, 0, -7.500002, 19006.200487, 9839.775004)"
         id="g3837" />
      <g
         transform="matrix(7.500002, 0, 0, -7.500002, 19006.200487, 9839.775004)"
         id="g3839" />
      <g
         transform="matrix(7.500002, 0, 0, -7.500002, 19006.200487, 9839.775004)"
         id="g3841" />
      <g
         transform="matrix(7.500002, 0, 0, -7.500002, 19006.200487, 9839.775004)"
         id="g3843" />
    </g>
    <g
       transform="translate(1754.5636,647.84967)"
       inkscape:label="ink_ext_XXXXXX"
       id="g4685"
       style="opacity:1">
      <g
         transform="matrix(0.04058261,0,0,0.04058261,-261.9428,-146.86926)"
         id="g4863">
        <path
           inkscape:connector-curvature="0"
           id="path4865"
           style="fill:#ad1f11;fill-opacity:1;fill-rule:nonzero;stroke:none"
           d="m 16300,8546.9 c 0,-1264.99 -1025.5,-2290.48 -2290.5,-2290.48 -1265,0 -2290.5,1025.49 -2290.5,2290.48 0,1264.99 1025.5,2290.5 2290.5,2290.5 1265,0 2290.5,-1025.51 2290.5,-2290.5" />
      </g>
      <g
         transform="matrix(0.03877055,0,0,0.03877055,-261.9428,-146.86926)"
         id="g4867">
        <path
           inkscape:connector-curvature="0"
           id="path4869"
           transform="matrix(6.1800624,0,0,-6.1800624,0,12086.142)"
           d="m 2527.3164,244.35352 c -2.5323,0.008 -5.0594,0.97484 -6.9687,2.90039 L 2372.4512,396.18555 2223.5215,248.30469 c -3.8511,-3.83492 -10.1456,-3.81845 -13.9805,0.0488 l -97.539,98.21679 c -3.8188,3.85919 -3.8029,10.14879 0.064,13.98047 l 148.9141,147.88867 -147.8789,148.92578 c -3.835,3.85757 -3.8185,10.14718 0.049,13.98047 l 98.2187,97.53711 c 3.8673,3.83006 10.1618,3.80645 13.9805,-0.0527 L 2373.2283,619.9043 2522.158,767.79102 c 3.8673,3.83005 10.1633,3.8084 13.998,-0.0508 l 97.5235,-98.21875 c 3.8349,-3.85918 3.8023,-10.15269 -0.049,-13.98437 L 2484.6992,507.6543 2632.5957,358.72656 c 3.8187,-3.85756 3.8023,-10.14879 -0.049,-13.98047 l -98.2364,-97.54101 c -1.9255,-1.90937 -4.4618,-2.85965 -6.9941,-2.85156 z"
           style="fill:#ffffff;fill-opacity:1;fill-rule:nonzero;stroke:none;stroke-width:0.16181067" />
      </g>
    </g>
  </g>
</svg>
